<?xml version="1.0" encoding="UTF-8" standalone="no"?>
<!-- Created with Inkscape (http://www.inkscape.org/) -->

<svg
   xmlns:osb="http://www.openswatchbook.org/uri/2009/osb"
   xmlns:dc="http://purl.org/dc/elements/1.1/"
   xmlns:cc="http://creativecommons.org/ns#"
   xmlns:rdf="http://www.w3.org/1999/02/22-rdf-syntax-ns#"
   xmlns:svg="http://www.w3.org/2000/svg"
   xmlns="http://www.w3.org/2000/svg"
   xmlns:xlink="http://www.w3.org/1999/xlink"
   xmlns:sodipodi="http://sodipodi.sourceforge.net/DTD/sodipodi-0.dtd"
   xmlns:inkscape="http://www.inkscape.org/namespaces/inkscape"
   width="1024px"
   height="768px"
   id="svg2985"
   version="1.1"
   inkscape:version="0.48.3.1 r9886"
   sodipodi:docname="research_design.pdf">
  <defs
     id="defs2987">
    <linearGradient
       id="linearGradient5435">
      <stop
         style="stop-color:#000000;stop-opacity:1;"
         offset="0"
         id="stop5437" />
      <stop
         style="stop-color:#000000;stop-opacity:0;"
         offset="1"
         id="stop5439" />
    </linearGradient>
    <linearGradient
       id="linearGradient5378"
       osb:paint="gradient">
      <stop
         style="stop-color:#000000;stop-opacity:1;"
         offset="0"
         id="stop5380" />
      <stop
         style="stop-color:#000000;stop-opacity:0;"
         offset="1"
         id="stop5382" />
    </linearGradient>
    <linearGradient
       inkscape:collect="always"
       id="linearGradient3844">
      <stop
         style="stop-color:#000080;stop-opacity:1;"
         offset="0"
         id="stop3846" />
      <stop
         style="stop-color:#000080;stop-opacity:0;"
         offset="1"
         id="stop3848" />
    </linearGradient>
    <linearGradient
       inkscape:collect="always"
       id="linearGradient3836">
      <stop
         style="stop-color:#ffff00;stop-opacity:1;"
         offset="0"
         id="stop3838" />
      <stop
         style="stop-color:#ffff00;stop-opacity:0;"
         offset="1"
         id="stop3840" />
    </linearGradient>
    <linearGradient
       inkscape:collect="always"
       xlink:href="#linearGradient3836"
       id="linearGradient3842"
       x1="268.5"
       y1="601.5"
       x2="595.5"
       y2="601.5"
       gradientUnits="userSpaceOnUse" />
    <radialGradient
       inkscape:collect="always"
       xlink:href="#linearGradient3844"
       id="radialGradient3850"
       cx="504.5"
       cy="568"
       fx="504.5"
       fy="568"
       r="41"
       gradientTransform="matrix(1,0,0,0.93902439,0,34.634146)"
       gradientUnits="userSpaceOnUse" />
    <radialGradient
       inkscape:collect="always"
       xlink:href="#linearGradient3844"
       id="radialGradient5366"
       cx="426"
       cy="386.97485"
       fx="426"
       fy="386.97485"
       r="113.1"
       gradientTransform="matrix(1,0,0,0.05415694,0,366.01748)"
       gradientUnits="userSpaceOnUse" />
    <linearGradient
       inkscape:collect="always"
       xlink:href="#linearGradient5378"
       id="linearGradient5384"
       x1="263.85001"
       y1="500"
       x2="594.15002"
       y2="500"
       gradientUnits="userSpaceOnUse"
       gradientTransform="translate(0,-0.69708846)" />
    <radialGradient
       inkscape:collect="always"
       xlink:href="#linearGradient3844"
       id="radialGradient5441"
       cx="424.5"
       cy="286"
       fx="424.5"
       fy="286"
       r="70.5"
       gradientTransform="matrix(1,0,0,0.14184397,0,245.43262)"
       gradientUnits="userSpaceOnUse" />
    <filter
       id="filter3213"
       inkscape:label="Cutout"
       x="0"
       y="0"
       width="1"
       height="1"
       inkscape:menu="Shadows and Glows"
       inkscape:menu-tooltip="Drop shadow under the cut-out of the shape"
       color-interpolation-filters="sRGB">
      <feGaussianBlur
         id="feGaussianBlur3215"
         in="SourceAlpha"
         stdDeviation="4.2" />
      <feOffset
         id="feOffset3217"
         dy="5"
         dx="5"
         result="result91" />
      <feComposite
         id="feComposite3219"
         in2="result91"
         operator="out"
         in="SourceGraphic" />
    </filter>
  </defs>
  <sodipodi:namedview
     id="base"
     pagecolor="#fdffff"
     bordercolor="#666666"
     borderopacity="1.0"
     inkscape:pageopacity="1"
     inkscape:pageshadow="2"
     inkscape:zoom="1.4345382"
     inkscape:cx="275.66167"
     inkscape:cy="354.13904"
     inkscape:current-layer="layer1"
     inkscape:document-units="px"
     showgrid="false"
     inkscape:window-width="1680"
     inkscape:window-height="1026"
     inkscape:window-x="0"
     inkscape:window-y="24"
     inkscape:window-maximized="1"
     inkscape:snap-grids="true" />
  <metadata
     id="metadata2990">
    <rdf:RDF>
      <cc:Work
         rdf:about="">
        <dc:format>image/svg+xml</dc:format>
        <dc:type
           rdf:resource="http://purl.org/dc/dcmitype/StillImage" />
        <dc:title></dc:title>
      </cc:Work>
    </rdf:RDF>
  </metadata>
  <g
     inkscape:groupmode="layer"
     id="layer2"
     inkscape:label="Layer"
     style="opacity:0.52409638"
     sodipodi:insensitive="true">
    <path
       style="fill:#917c6f;stroke:#000000;stroke-width:1px;stroke-linecap:butt;stroke-linejoin:miter;stroke-opacity:1"
       d="m 297.50321,410.04508 c -7.43706,16.9326 -38.55245,10.42375 -43.42573,21.51915 -20.7064,47.14406 28.78688,66.66254 28.78688,66.66254 l 96.54676,0.34854 1.04563,5.92525 179.15173,0.69709 -32.41461,-59.94961 53.32726,0.34855 0,-36.2486 z"
       id="path3101"
       inkscape:connector-curvature="0"
       sodipodi:nodetypes="cscccccccc" />
  </g>
  <g
     id="layer1"
     inkscape:label="Layer 1"
     inkscape:groupmode="layer"
     style="display:inline">
    <path
       style="opacity:0.15226337;fill:none;stroke:#000000;stroke-width:10;stroke-linecap:round;stroke-linejoin:round;stroke-opacity:1;stroke-miterlimit:4;stroke-dasharray:none"
       d="M 422,158 C 194,662 194,660 194,660 l 480,-2 z"
       id="path2993"
       inkscape:connector-curvature="0" />
    <path
       style="fill:none;stroke:url(#radialGradient5441);stroke-width:20;stroke-linecap:butt;stroke-linejoin:miter;stroke-miterlimit:4;stroke-opacity:1;stroke-dasharray:none"
       d="m 364,286 121,0"
       id="path3014"
       inkscape:connector-curvature="0" />
    <path
       style="opacity:0.80246911;fill:url(#radialGradient5366);fill-opacity:1;stroke:#000000;stroke-width:12.19999981;stroke-linecap:butt;stroke-linejoin:miter;stroke-miterlimit:4;stroke-opacity:1;stroke-dasharray:12.19999981, 12.19999981;stroke-dashoffset:23.17999964"
       d="m 319,387 214,-0.0503"
       id="path3016"
       inkscape:connector-curvature="0"
       sodipodi:nodetypes="cc" />
    <path
       style="fill:none;stroke:url(#linearGradient5384);stroke-width:6.30000019;stroke-linecap:butt;stroke-linejoin:miter;stroke-miterlimit:4;stroke-opacity:1;stroke-dasharray:none"
       d="m 267,499.30291 324,0"
       id="path3018"
       inkscape:connector-curvature="0" />
    <path
       sodipodi:type="arc"
       style="fill:#67ffff;fill-opacity:1;stroke:#08b900;stroke-width:3;stroke-miterlimit:4;stroke-opacity:1;stroke-dasharray:none"
       id="path3020"
       sodipodi:cx="384.5"
       sodipodi:cy="568"
       sodipodi:rx="80.5"
       sodipodi:ry="41"
       d="m 465,568 a 80.5,41 0 1 1 -161,0 80.5,41 0 1 1 161,0 z"
       transform="translate(23,2)" />
    <path
       sodipodi:type="arc"
       style="fill:#008000;fill-opacity:0;stroke:#087d00;stroke-width:3;stroke-miterlimit:4;stroke-opacity:1;stroke-dasharray:none"
       id="path3022"
       sodipodi:cx="468"
       sodipodi:cy="579"
       sodipodi:rx="42"
       sodipodi:ry="58"
       d="m 510,579 a 42,58 0 1 1 -84,0 42,58 0 1 1 84,0 z"
       transform="matrix(1.1140098,0,0,1.1687657,-48.35658,-87.715344)" />
    <path
       sodipodi:type="arc"
       style="fill:url(#linearGradient3842);fill-opacity:1;stroke:#087d00;stroke-width:3;stroke-miterlimit:4;stroke-opacity:1;stroke-dasharray:none"
       id="path3024"
       sodipodi:cx="432"
       sodipodi:cy="601.5"
       sodipodi:rx="162"
       sodipodi:ry="47.5"
       d="m 594,601.5 a 162,47.5 0 1 1 -324,0 162,47.5 0 1 1 324,0 z"
       transform="matrix(0.99189444,-0.12706461,0.12706461,0.99189444,-95.927761,60.767404)" />
    <flowRoot
       xml:space="preserve"
       id="flowRoot3800"
       style="font-size:12px;font-style:normal;font-weight:normal;line-height:125%;letter-spacing:0px;word-spacing:0px;fill:#000000;fill-opacity:1;stroke:none;font-family:Source Code Pro;-inkscape-font-specification:Source Code Pro;font-stretch:normal;font-variant:normal"
       transform="translate(-18.847515,-16.085089)"><flowRegion
         id="flowRegion3802"><rect
           id="rect3804"
           width="119"
           height="113"
           x="394"
           y="244"
           style="-inkscape-font-specification:Source Code Pro;font-family:Source Code Pro;font-weight:normal;font-style:normal;font-stretch:normal;font-variant:normal" /></flowRegion><flowPara
         id="flowPara3806"
         style="font-size:20px;-inkscape-font-specification:Source Code Pro;font-family:Source Code Pro;font-weight:normal;font-style:normal;font-stretch:normal;font-variant:normal">Research</flowPara><flowPara
         id="flowPara3808"
         style="font-size:20px;-inkscape-font-specification:Source Code Pro;font-family:Source Code Pro;font-weight:normal;font-style:normal;font-stretch:normal;font-variant:normal">questions</flowPara></flowRoot>    <text
       xml:space="preserve"
       style="font-size:12px;font-style:normal;font-weight:normal;line-height:125%;letter-spacing:0px;word-spacing:0px;fill:#000000;fill-opacity:1;stroke:none;font-family:Source Code Pro;-inkscape-font-specification:Source Code Pro;font-stretch:normal;font-variant:normal"
       x="255.99608"
       y="522.66797"
       id="text3810"
       sodipodi:linespacing="125%"><tspan
         sodipodi:role="line"
         id="tspan3812"
         x="255.99608"
         y="522.66797"
         style="font-size:18px;-inkscape-font-specification:Source Code Pro;font-family:Source Code Pro;font-weight:normal;font-style:normal;font-stretch:normal;font-variant:normal">empirical materials</tspan></text>
    <text
       xml:space="preserve"
       style="font-size:12px;font-style:normal;font-weight:normal;line-height:125%;letter-spacing:0px;word-spacing:0px;fill:#000000;fill-opacity:1;stroke:none;font-family:Sans"
       x="368"
       y="545"
       id="text3814"
       sodipodi:linespacing="125%"><tspan
         sodipodi:role="line"
         id="tspan3816"
         x="368"
         y="545"
         style="font-size:14px">textual</tspan></text>
    <text
       xml:space="preserve"
       style="font-size:12px;font-style:normal;font-weight:normal;line-height:125%;letter-spacing:0px;word-spacing:0px;fill:#000000;fill-opacity:1;stroke:none;font-family:Sans"
       x="468"
       y="614"
       id="text3818"
       sodipodi:linespacing="125%"><tspan
         sodipodi:role="line"
         id="tspan3820"
         x="468"
         y="614">visual</tspan></text>
    <text
       xml:space="preserve"
       style="font-size:12px;font-style:normal;font-weight:normal;line-height:125%;letter-spacing:0px;word-spacing:0px;fill:#000000;fill-opacity:1;stroke:none;font-family:Sans"
       x="299"
       y="616"
       id="text3822"
       sodipodi:linespacing="125%"><tspan
         sodipodi:role="line"
         id="tspan3824"
         x="299"
         y="616">ethnographic</tspan></text>
    <text
       xml:space="preserve"
       style="font-size:12px;font-style:normal;font-weight:normal;line-height:125%;letter-spacing:0px;word-spacing:0px;fill:#000000;fill-opacity:1;stroke:none;font-family:Source Code Pro;-inkscape-font-specification:Source Code Pro;font-stretch:normal;font-variant:normal"
       x="284.81622"
       y="429.05026"
       id="text3826"
       sodipodi:linespacing="125%"><tspan
         sodipodi:role="line"
         id="tspan3828"
         x="284.81622"
         y="429.05026"
         style="font-size:16px;-inkscape-font-specification:Source Code Pro;font-family:Source Code Pro;font-weight:normal;font-style:normal;font-stretch:normal;font-variant:normal">relevant academic work on the topic</tspan></text>
    <text
       xml:space="preserve"
       style="font-size:12px;font-style:normal;font-weight:normal;line-height:125%;letter-spacing:0px;word-spacing:0px;fill:#000000;fill-opacity:1;stroke:none;font-family:Sans"
       x="350.5401"
       y="328.26846"
       id="text3830"
       sodipodi:linespacing="125%"><tspan
         sodipodi:role="line"
         id="tspan3832"
         x="350.5401"
         y="328.26846"
         style="font-size:18px">social and </tspan><tspan
         sodipodi:role="line"
         x="350.5401"
         y="350.76846"
         style="font-size:18px"
         id="tspan3221">cultural theories</tspan></text>
    <path
       sodipodi:type="arc"
       style="fill:url(#radialGradient3850);fill-opacity:1;stroke:#b90083;stroke-width:3;stroke-miterlimit:4;stroke-opacity:1;stroke-dasharray:none"
       id="path3834"
       sodipodi:cx="504.5"
       sodipodi:cy="568"
       sodipodi:rx="39.5"
       sodipodi:ry="37"
       d="m 544,568 a 39.5,37 0 1 1 -7.62745,-21.85546 L 504.5,568 z"
       sodipodi:start="0"
       sodipodi:end="5.6512739"
       transform="matrix(1.7457259,0,0,1.6474642,-307.71873,-360.75966)" />
    <flowRoot
       xml:space="preserve"
       id="flowRoot3852"
       style="font-size:32px;font-style:normal;font-weight:normal;line-height:125%;letter-spacing:0px;word-spacing:0px;fill:#000000;fill-opacity:1;stroke:none;font-family:Sans"
       transform="translate(-54.077827,-12.033035)"><flowRegion
         id="flowRegion3854"><rect
           id="rect3856"
           width="246"
           height="194"
           x="60"
           y="126"
           style="font-size:32px" /></flowRegion><flowPara
         id="flowPara3858"
         style="font-style:normal;font-variant:normal;font-weight:normal;font-stretch:normal;font-family:Source Code Pro;-inkscape-font-specification:Source Code Pro">Research project design</flowPara></flowRoot>    <flowRoot
       xml:space="preserve"
       id="flowRoot3872"
       style="font-size:12px;font-style:normal;font-weight:normal;line-height:125%;letter-spacing:0px;word-spacing:0px;fill:#000000;fill-opacity:1;stroke:none;font-family:Sans"><flowRegion
         id="flowRegion3874"><rect
           id="rect3876"
           width="66"
           height="52"
           x="545"
           y="527" /></flowRegion><flowPara
         id="flowPara3878">inventive/live</flowPara></flowRoot>    <g
       id="g5400"
       transform="translate(-38.985682,-4.2375742)"
       style="filter:url(#filter3213)">
      <rect
         y="178"
         x="723"
         height="481"
         width="46"
         id="rect3880"
         style="opacity:0.35510206;fill:#67ffff;fill-opacity:1;stroke:#000000;stroke-width:3;stroke-linejoin:round;stroke-miterlimit:4;stroke-opacity:1;stroke-dasharray:none" />
      <g
         id="g5388">
        <text
           xml:space="preserve"
           style="font-size:12px;font-style:normal;font-weight:normal;line-height:125%;letter-spacing:0px;word-spacing:0px;fill:#000000;fill-opacity:1;stroke:none;font-family:Sans"
           x="737.91492"
           y="239"
           id="text3882"
           sodipodi:linespacing="125%"><tspan
             sodipodi:role="line"
             id="tspan3884"
             x="737.91492"
             y="239"
             style="font-size:18px">1</tspan></text>
        <text
           xml:space="preserve"
           style="font-size:12px;font-style:normal;font-weight:normal;line-height:125%;letter-spacing:0px;word-spacing:0px;fill:#000000;fill-opacity:1;stroke:none;font-family:Sans"
           x="737.52484"
           y="334.39005"
           id="text3886"
           sodipodi:linespacing="125%"><tspan
             sodipodi:role="line"
             id="tspan3888"
             x="737.52484"
             y="334.39005"
             style="font-size:22px">2</tspan></text>
        <text
           xml:space="preserve"
           style="font-size:12px;font-style:normal;font-weight:normal;line-height:125%;letter-spacing:0px;word-spacing:0px;fill:#000000;fill-opacity:1;stroke:none;font-family:Sans"
           x="739.37238"
           y="461.42545"
           id="text3890"
           sodipodi:linespacing="125%"><tspan
             sodipodi:role="line"
             id="tspan3892"
             x="739.37238"
             y="461.42545"
             style="font-size:22px">3</tspan></text>
        <text
           xml:space="preserve"
           style="font-size:12px;font-style:normal;font-weight:normal;line-height:125%;letter-spacing:0px;word-spacing:0px;fill:#000000;fill-opacity:1;stroke:none;font-family:Sans"
           x="737.59222"
           y="600.18787"
           id="text3894"
           sodipodi:linespacing="125%"><tspan
             sodipodi:role="line"
             id="tspan3896"
             x="737.59222"
             y="600.18787"
             style="font-size:28px">5</tspan></text>
        <text
           xml:space="preserve"
           style="font-size:12px;font-style:normal;font-weight:normal;line-height:125%;letter-spacing:0px;word-spacing:0px;fill:#000000;fill-opacity:1;stroke:none;font-family:Sans"
           x="704"
           y="435"
           id="text3898"
           sodipodi:linespacing="125%"><tspan
             sodipodi:role="line"
             id="tspan3900"
             x="704"
             y="435">-</tspan></text>
      </g>
    </g>
    <text
       xml:space="preserve"
       style="font-size:12px;font-style:normal;font-weight:normal;line-height:125%;letter-spacing:0px;word-spacing:0px;fill:#000000;fill-opacity:1;stroke:none;font-family:Sans"
       x="382.22919"
       y="378.14319"
       id="text3902"
       sodipodi:linespacing="125%"><tspan
         sodipodi:role="line"
         id="tspan3904"
         x="382.22919"
         y="378.14319">(general)</tspan></text>
    <rect
       style="opacity:0.35510206;fill:#67ffff;fill-opacity:1;stroke:#000000;stroke-width:3;stroke-linejoin:round;stroke-miterlimit:4;stroke-opacity:1;stroke-dasharray:none"
       id="rect3906"
       width="73.733788"
       height="33.053078"
       x="303.41031"
       y="451.02945" />
    <rect
       style="opacity:0.35510206;fill:#67ffff;fill-opacity:1;stroke:#000000;stroke-width:3;stroke-linejoin:round;stroke-miterlimit:4;stroke-opacity:1;stroke-dasharray:none"
       id="rect3908"
       width="111.87196"
       height="35.595623"
       x="415.28226"
       y="453.57199" />
    <text
       xml:space="preserve"
       style="font-size:12px;font-style:normal;font-weight:normal;line-height:125%;letter-spacing:0px;word-spacing:0px;fill:#000000;fill-opacity:1;stroke:none;font-family:Sans"
       x="324.59818"
       y="467.13223"
       id="text3910"
       sodipodi:linespacing="125%"><tspan
         sodipodi:role="line"
         id="tspan3912"
         x="324.59818"
         y="467.13223">specific</tspan></text>
    <text
       xml:space="preserve"
       style="font-size:12px;font-style:normal;font-weight:normal;line-height:125%;letter-spacing:0px;word-spacing:0px;fill:#000000;fill-opacity:1;stroke:none;font-family:Sans"
       x="450.8779"
       y="470.52228"
       id="text3914"
       sodipodi:linespacing="125%"><tspan
         sodipodi:role="line"
         id="tspan3916"
         x="450.8779"
         y="470.52228">associated</tspan></text>
    <flowRoot
       xml:space="preserve"
       id="flowRoot3918"
       style="font-size:12px;font-style:normal;font-weight:normal;line-height:125%;letter-spacing:0px;word-spacing:0px;fill:#000000;fill-opacity:1;stroke:none;font-family:Source Code Pro;-inkscape-font-specification:Source Code Pro;font-stretch:normal;font-variant:normal"><flowRegion
         id="flowRegion3920"><rect
           id="rect3922"
           width="161.87534"
           height="25.425446"
           x="674.62183"
           y="150.16168"
           style="-inkscape-font-specification:Source Code Pro;font-family:Source Code Pro;font-weight:normal;font-style:normal;font-stretch:normal;font-variant:normal" /></flowRegion><flowPara
         id="flowPara3924">Relative proportions</flowPara></flowRoot>    <text
       xml:space="preserve"
       style="font-size:12px;font-style:normal;font-weight:normal;line-height:125%;letter-spacing:0px;word-spacing:0px;fill:#000000;fill-opacity:1;stroke:none;font-family:Times New Roman;-inkscape-font-specification:Times New Roman"
       x="156.84489"
       y="240.30403"
       id="text3137"
       sodipodi:linespacing="125%"><tspan
         sodipodi:role="line"
         id="tspan3139"
         x="156.84489"
         y="240.30403">the hard bit - </tspan><tspan
         sodipodi:role="line"
         x="156.84489"
         y="255.30403"
         id="tspan3161">you only need</tspan><tspan
         sodipodi:role="line"
         x="156.84489"
         y="270.30405"
         id="tspan3163">one or two</tspan></text>
    <text
       xml:space="preserve"
       style="font-size:12px;font-style:normal;font-weight:normal;line-height:125%;letter-spacing:0px;word-spacing:0px;fill:#000000;fill-opacity:1;stroke:none;font-family:Times New Roman;-inkscape-font-specification:Times New Roman"
       x="154.05655"
       y="331.62262"
       id="text3141"
       sodipodi:linespacing="125%"><tspan
         sodipodi:role="line"
         id="tspan3143"
         x="154.05655"
         y="331.62262">use your course outlines;</tspan><tspan
         sodipodi:role="line"
         x="154.05655"
         y="346.62262"
         id="tspan3165">try to bring together 2-3</tspan><tspan
         sodipodi:role="line"
         x="154.05655"
         y="361.62262"
         id="tspan3167">different theories/approaches</tspan></text>
    <text
       xml:space="preserve"
       style="font-size:12px;font-style:normal;font-weight:normal;line-height:125%;letter-spacing:0px;word-spacing:0px;fill:#000000;fill-opacity:1;stroke:none;font-family:Times New Roman;-inkscape-font-specification:Times New Roman"
       x="115.0196"
       y="448.73349"
       id="text3145"
       sodipodi:linespacing="125%"><tspan
         sodipodi:role="line"
         id="tspan3147"
         x="115.0196"
         y="448.73349">use databases like</tspan><tspan
         sodipodi:role="line"
         x="115.0196"
         y="463.73349"
         id="tspan3149">Web of Science and </tspan><tspan
         sodipodi:role="line"
         x="115.0196"
         y="478.73349"
         id="tspan3151">Google Scholar</tspan></text>
    <path
       style="fill:#917c6f;fill-opacity:0.34901961;stroke-width:1.60000002;stroke-miterlimit:4;stroke-dasharray:none"
       id="path3153"
       d="m 237.45541,235.19211 c 17.45388,0.46442 34.9188,0.47834 52.37805,0.50001 14.31668,0.1171 28.63106,0.41097 42.94394,0.75006 3.15899,0.0141 6.32247,0.1378 9.43185,0.72384 2.15305,0.42537 4.33902,0.63347 6.52812,0.74743 2.05975,0.0984 4.06903,0.81774 6.03614,1.41018 2.14316,0.47092 4.17668,1.31551 6.3067,1.82644 1.72024,0.56534 3.36369,1.31212 4.93985,2.20015 1.03492,0.50636 1.96265,1.17852 2.99653,1.68725 0,0 -8.65182,5.66576 -8.65182,5.66576 l 0,0 c -0.99849,-0.56045 -1.9431,-1.21051 -2.97062,-1.71944 -1.5448,-0.80732 -3.15032,-1.50124 -4.82984,-1.97945 -2.08644,-0.61128 -4.1186,-1.39944 -6.24046,-1.89475 -1.95745,-0.53195 -3.928,-1.14259 -5.97091,-1.18751 -2.20044,-0.17233 -4.39078,-0.4487 -6.56091,-0.85604 -3.01521,-0.46266 -6.05211,-0.68607 -9.10002,-0.79967 -13.91899,-0.81662 -27.85338,-1.40128 -41.7973,-1.53295 -17.91819,0.0222 -35.84123,0.0473 -53.75446,0.50001 0,0 8.31516,-6.04132 8.31516,-6.04132 z"
       inkscape:connector-curvature="0" />
    <path
       style="fill:#917c6f;fill-opacity:0.34901961;stroke-width:1.60000002;stroke-miterlimit:4;stroke-dasharray:none"
       id="path3155"
       d="m 361.84116,249.86366 c -1.08633,-2.1982 -2.40855,-4.26593 -3.68664,-6.35444 -0.80507,-1.33601 -1.24097,-2.87938 -2.17577,-4.1361 -0.77293,-1.20214 -1.4858,-2.48335 -2.49423,-3.50662 -4.23421,-3.4416 5.04414,-9.71337 8.75878,-6.32952 1.60317,1.65134 3.20974,3.3007 4.74977,5.0135 1.45422,1.47499 2.84376,3.02741 4.15842,4.62911 0.91403,1.17092 1.23574,2.61614 1.62362,4.01597 0.41975,1.46819 0.79405,2.87695 0.70213,4.41378 -0.53372,2.42056 -2.73012,3.72774 -4.57582,5.13621 -2.48632,1.80223 -4.89719,3.69265 -7.16465,5.76365 -1.50321,1.15904 -2.67383,2.63119 -3.91391,4.04642 -0.5846,0.75014 -1.33199,1.33682 -2.04315,1.95748 0,0 -9.64799,3.81205 -9.64799,3.81205 l 0,0 c 0.8005,-0.46373 1.49887,-1.11338 2.18106,-1.73458 1.2079,-1.49307 2.41885,-3.01532 3.94669,-4.19927 2.25687,-2.11103 4.62471,-4.07867 7.14588,-5.86969 1.96104,-1.44281 0.5256,-0.36237 2.35035,-1.7965 0.55795,-0.43852 1.20992,-0.77088 1.69318,-1.29056 0.32922,-0.35402 0.40911,-0.89305 0.75312,-1.23943 0.28224,-1.42592 -0.1453,-2.68264 -0.52232,-4.05206 -0.34724,-1.26127 -0.58501,-2.58734 -1.3879,-3.6557 -1.29544,-1.59281 -2.64084,-3.15174 -4.07353,-4.62261 -1.50601,-1.66986 -3.06684,-3.30827 -4.75464,-4.79297 -3.79929,-2.30102 11.68167,-3.15328 8.18988,-5.61717 -0.17545,-0.1238 -0.012,0.23844 0.23855,0.55172 0.13529,0.16919 0.29003,0.32187 0.43504,0.4828 0.98616,1.10428 1.77342,2.37321 2.57019,3.61734 0.91352,1.31339 1.41183,2.83519 2.15582,4.24301 1.26281,2.12987 2.55213,4.24343 3.77574,6.39674 0,0 -8.98767,5.11744 -8.98767,5.11744 z"
       inkscape:connector-curvature="0" />
    <path
       style="fill:#917c6f;fill-opacity:0.34901961;stroke-width:1.60000002;stroke-miterlimit:4;stroke-dasharray:none"
       id="path3157"
       d="m 289.26764,339.73293 c 2.11905,0.0361 4.23862,0.0204 6.35786,0.0129 1.56922,-0.006 3.13845,-0.009 4.70767,-0.0108 1.53175,-7.9e-4 3.06347,0.005 4.59522,0.004 1.4826,-0.002 2.9652,-0.003 4.44781,-0.004 1.49261,-0.0759 2.87044,0.54779 4.27847,0.94111 6.10468,1.33733 1.92899,1.22874 -6.54322,6.24718 -1.54064,-0.79256 -2.74081,-2.13971 -3.95656,-3.35163 -1.19981,-1.2116 -2.30238,-2.51735 -3.50348,-3.72733 -0.89603,-1.04055 -1.95501,-1.92988 -2.952,-2.87248 -1.06951,-1.05229 -2.30127,-2.1397 -2.55083,-3.68165 0.28809,-3.90883 6.13746,-7.26926 9.77999,-5.94261 0.59623,0.21715 1.12595,0.65758 1.6706,0.97523 1.57572,1.28783 2.93532,2.81181 4.12936,4.45401 0.9668,1.11107 1.5565,2.45723 2.61864,3.48424 1.40021,1.13024 2.64673,2.40404 3.84601,3.74049 0.81591,1.20671 1.84332,2.1802 2.89109,3.16465 1.38794,1.36426 0.83062,2.9046 -0.0216,4.37771 -1.34361,2.04174 -3.29421,3.54842 -5.11685,5.13513 -1.42789,1.29077 -2.77448,2.66601 -4.1639,3.99635 -0.52993,0.505 -1.12717,0.92977 -1.70307,1.3792 0,0 -9.58645,3.89522 -9.58645,3.89522 l 0,0 c 0.53089,-0.51548 1.0921,-0.96294 1.72569,-1.35097 1.4443,-1.31647 2.80555,-2.71674 4.22695,-4.05907 1.77416,-1.55616 3.67337,-2.99741 5.18282,-4.82463 0.33295,-0.51209 1.32825,-1.5669 1.21927,-2.26783 -0.049,-0.31542 -0.37316,-0.61518 -0.56328,-0.83147 -1.10681,-0.97526 -2.03893,-2.08089 -2.91653,-3.26858 -1.19508,-1.32017 -2.45838,-2.55091 -3.83714,-3.68111 -1.07199,-1.09543 -1.72321,-2.44934 -2.67351,-3.64411 -1.10438,-1.53015 -2.36471,-2.98461 -3.93962,-4.04798 -0.36191,-0.19668 -0.8773,-0.60073 -1.33031,-0.4224 -0.10442,0.0411 -0.36824,0.25608 -0.27203,0.19832 8.62425,-5.17762 11.76584,-5.08333 8.12896,-5.12332 -0.51814,0.67151 1.59483,2.44506 2.04739,2.91572 1.02349,0.94242 2.10337,1.83682 2.9925,2.91253 1.15791,1.23714 2.26864,2.51893 3.45796,3.72571 1.16294,1.14133 2.31225,2.37402 3.82607,3.04557 -8.81025,6.51778 -5.16108,6.73416 -10.65136,5.29169 -1.34577,-0.40635 -2.68355,-0.81487 -4.11161,-0.70057 -1.47898,-7.5e-4 -2.95797,-0.002 -4.43695,-0.004 -1.53523,-0.001 -3.07043,0.005 -4.60566,0.004 -1.55934,-0.002 -3.11867,-0.004 -4.678,-0.0108 -2.13106,-0.008 -4.26242,-0.0228 -6.3933,0.0129 0,0 8.37695,-6.08621 8.37695,-6.08621 z"
       inkscape:connector-curvature="0" />
    <path
       style="fill:#917c6f;fill-opacity:0.34901961;stroke-width:1.60000002;stroke-miterlimit:4;stroke-dasharray:none"
       id="path3159"
       d="m 166.35921,428.57007 c 0.70773,-2.47432 1.65823,-4.77733 3.27129,-6.79073 3.90974,-3.84534 9.05897,-6.51401 14.30252,-8.1016 2.2743,-0.7656 4.53661,-1.57578 6.73094,-2.5576 2.14417,-0.94208 4.42928,-1.38228 6.74891,-1.57927 2.01927,-0.36757 4.0556,-0.58057 6.10252,-0.70615 1.90892,-0.14711 3.83866,0.0644 5.73438,-0.20918 1.54405,-0.0374 3.06574,-0.34746 4.60743,-0.47271 1.55892,-0.1852 3.08975,0.20767 4.63617,0.37066 1.6788,0.16252 3.36557,0.202 5.05099,0.22208 1.63939,-0.16011 3.12618,0.17469 4.67999,0.64176 1.45507,0.46028 2.96645,0.6322 4.48268,0.71836 1.53237,-0.0764 3.00074,0.15957 4.49777,0.43345 1.36141,0.22661 2.67562,0.68678 3.98576,1.11474 1.32677,0.30023 2.44409,1.10715 3.73662,1.50094 1.61385,0.71668 3.25643,1.29658 4.99201,1.62817 1.43902,0.30897 2.93216,0.0883 4.3627,0.39023 1.18512,0.2485 2.34764,0.41847 3.49987,0.78761 0.21318,0.0918 0.53126,0.17811 0.66846,0.40356 2.23758,3.67679 -7.08027,4.58061 -9.26002,5.51484 -0.11826,0.0507 -1.31236,-1.02215 -1.3246,-1.03273 -1.26081,-1.11883 -2.47988,-2.23771 -3.3648,-3.68471 -0.68866,-1.33368 -1.14621,-2.74138 -1.41584,-4.21332 -0.2518,-1.58063 -0.54783,-3.14369 -0.70746,-4.73869 0.0157,-1.39462 -0.29344,-2.72964 -0.56328,-4.08197 3.09191,-1.70281 6.07327,-3.62393 9.27572,-5.10843 0.23584,-0.10933 0.37436,0.36137 0.54845,0.55441 1.06154,1.1771 1.82175,2.62612 2.63746,3.97602 1.08482,2.04789 2.41406,3.89527 3.98492,5.58368 0.99005,1.04953 1.75311,2.33766 2.93913,3.17994 0.99365,0.18928 1.49537,0.99097 1.98567,1.79417 0.58989,1.17057 0.70668,2.4359 0.49413,3.71163 -0.51861,1.73615 -1.76885,3.08045 -2.96273,4.38969 -1.24001,1.40536 -2.65422,2.62521 -4.12524,3.77893 -3.41545,2.50179 -7.25999,4.29777 -10.94006,6.40232 -0.20496,0.11721 -0.80839,0.48819 -0.60341,0.37101 8.13772,-4.65235 10.94071,-6.50341 7.68608,-4.37249 -1.1923,0.68324 -2.17577,1.65453 -3.15161,2.60871 -0.98191,0.78472 -1.61133,1.77599 -2.08595,2.91895 -0.56834,1.02313 -0.71736,2.18457 -1.05374,3.2868 -0.26966,0.74377 -0.13938,0.39856 -0.38743,1.03689 0,0 -9.38808,4.42324 -9.38808,4.42324 l 0,0 c 0.18867,-0.71781 0.0574,-0.3719 0.39508,-1.03728 0.37208,-1.13402 0.5375,-2.30705 1.00268,-3.41176 0.59932,-1.14469 0.86466,-2.43371 1.92567,-3.3045 1.07233,-0.88036 1.93758,-1.99892 3.09195,-2.77815 5.11432,-3.03836 20.11611,-11.74384 2.48924,-1.45053 -0.48302,0.28207 2.009,-1.10672 1.42075,-0.89293 1.53593,-1.03021 2.94659,-2.25361 4.21223,-3.60121 1.15164,-1.20342 2.35423,-2.41046 3.13566,-3.89842 0.36774,-0.992 0.31475,-1.98976 -0.13821,-2.95719 -0.46587,-0.7374 -0.97123,-1.12131 -1.76702,-1.50024 -1.14768,-0.97187 -2.00087,-2.21633 -2.99265,-3.33982 -1.60986,-1.74296 -2.84912,-3.73699 -4.02529,-5.795 -0.62975,-1.00876 -1.23339,-2.10399 -1.98056,-3.03407 -0.17768,-0.22117 -0.37761,-0.42528 -0.58973,-0.61368 -0.13329,-0.11838 -0.58754,-0.20008 -0.44133,-0.30207 2.78811,-1.94497 5.76033,-3.61173 8.64049,-5.41759 -0.0513,0.49734 0.15896,1.02059 0.24559,1.50953 0.18395,1.03821 0.10961,0.60808 0.17003,1.69259 0.0169,0.30311 0.0398,0.60585 0.0597,0.90878 0.14433,1.5722 0.4557,3.10368 0.70458,4.65715 0.20684,1.35703 0.60296,2.64156 1.22122,3.87206 0.81379,1.34611 1.99752,2.36236 3.17194,3.39046 0.20093,0.1531 0.39142,0.32096 0.60279,0.45928 0.19742,0.12919 0.8124,0.20419 0.62022,0.34107 -2.73353,1.94692 -5.81384,3.37215 -8.55403,5.3097 -0.34228,0.24201 0.99673,0.73364 -0.0725,0.33892 -1.11409,-0.31495 -2.27405,-0.42782 -3.40522,-0.67111 -1.46222,-0.11699 -2.9409,-0.11498 -4.37586,-0.4652 -1.74336,-0.42854 -3.40167,-1.08289 -5.07621,-1.72249 -1.24538,-0.48715 -2.41785,-1.16037 -3.72704,-1.48079 -1.27967,-0.41735 -2.58169,-0.78516 -3.91324,-0.9938 -1.46849,-0.26438 -2.93848,-0.30518 -4.4282,-0.35217 -1.55628,-0.14971 -3.09225,-0.42337 -4.58534,-0.89901 -1.4971,-0.39982 -2.99064,-0.45409 -4.53668,-0.41678 -1.69937,-0.0439 -3.3987,-0.12144 -5.08904,-0.31034 -1.51064,-0.17366 -3.01474,-0.42909 -4.53582,-0.18416 -1.52737,0.16227 -3.04613,0.40749 -4.5838,0.45841 -1.91359,0.0967 -3.83316,0.0326 -5.74522,0.18193 -2.03413,0.15399 -4.04909,0.44358 -6.06808,0.73003 -2.25673,0.29412 -4.45569,0.83375 -6.5298,1.79734 -2.23961,0.91872 -4.50888,1.76087 -6.80991,2.51316 -0.75378,0.27812 -1.23405,0.4402 -1.96535,0.76949 -0.31438,0.14155 -1.22627,0.62906 -0.92998,0.45276 14.55534,-8.66038 8.97085,-5.58622 6.18573,-3.43879 -0.50193,0.53845 -1.10446,1.14253 -1.51744,1.75695 -0.93582,1.39229 -1.40898,3.04984 -1.86512,4.6427 0,0 -9.35523,4.39356 -9.35523,4.39356 z"
       inkscape:connector-curvature="0" />
    <text
       xml:space="preserve"
       style="font-size:12px;font-style:normal;font-weight:normal;line-height:125%;letter-spacing:0px;word-spacing:0px;fill:#000000;fill-opacity:1;stroke:none;font-family:Times New Roman;-inkscape-font-specification:Times New Roman"
       x="57.858341"
       y="547.02295"
       id="text3169"
       sodipodi:linespacing="125%"><tspan
         sodipodi:role="line"
         id="tspan3171"
         x="57.858341"
         y="547.02295">use methods discussed</tspan><tspan
         sodipodi:role="line"
         x="57.858341"
         y="562.02295"
         id="tspan3173">in this course</tspan></text>
    <path
       style="fill:#917c6f;fill-opacity:0.34901960999999998;stroke-width:1.60000001999999997;stroke-miterlimit:4;stroke-dasharray:none"
       id="path3175"
       d="m 142.10493,567.41336 c 0.31299,-0.14409 0.62598,-0.28817 0.93896,-0.43226 0.40328,-0.14965 0.81695,-0.27384 1.20984,-0.44895 2.21029,-0.98511 0.23838,-0.31533 2.53585,-1.242 1.14396,-0.4614 1.73694,-0.58397 2.92747,-0.90687 3.66721,-0.66664 7.40872,-0.57827 11.10164,-0.96498 1.88786,-0.25512 3.77756,-0.47961 5.68063,-0.57456 1.87648,-0.13343 3.7304,0.0133 5.59359,0.21401 2.55385,0.231 5.10529,0.38984 7.65426,0.67025 4.47567,0.52114 8.9629,0.84357 13.46421,1.038 3.48216,0.26395 6.99695,-0.051 10.47177,0.27027 1.71822,0.0246 3.3096,0.64413 4.96622,0.996 1.31913,0.26124 2.66741,0.15466 3.98545,0.39202 2.05905,0.34751 4.14683,0.45125 6.23027,0.52416 2.3858,0.0683 4.7728,0.0622 7.15932,0.0656 2.7782,0.003 5.55637,0.008 8.33457,0.007 2.28461,-0.19749 4.55902,-0.47435 6.84792,-0.62384 1.58076,-0.0952 3.16463,-0.10805 4.74772,-0.11402 1.56257,0.003 3.12515,0.007 4.68774,0.006 1.41741,0.0848 2.77937,-0.0351 4.14582,-0.41352 0.0937,-0.0542 0.36828,-0.22677 0.28118,-0.16249 -5.00108,3.69147 -6.34018,7.00591 -11.31,6.4502 -2.10376,-0.23594 -4.16122,-0.80203 -6.16922,-1.46077 -1.843,-0.56337 -3.64826,-1.26978 -5.37809,-2.12003 -2.13138,-1.11555 -4.17646,-2.38429 -6.20029,-3.68353 -1.92746,-1.20239 -3.75694,-2.50554 -5.51947,-3.93293 -1.0442,-0.96334 -1.90351,-1.54512 -2.0717,-3.02445 3.11356,-1.67449 6.14521,-3.51116 9.3407,-5.02345 0.20109,-0.0952 0.38947,0.21523 0.58141,0.32772 1.09609,0.64241 2.12195,1.37799 3.1012,2.18484 1.94617,1.63648 3.59141,3.58938 5.54471,5.21297 1.426,1.50314 3.27261,2.241 5.09323,3.10494 1.76122,0.78612 3.55482,1.34874 5.45898,1.64691 1.5383,0.43334 3.10695,0.69649 4.69772,0.82271 1.37766,0.14732 2.78217,-0.068 4.13949,0.21533 1.6398,0.33829 2.61158,0.49898 2.117,2.49 -1.70794,2.24421 -3.94835,4.08482 -6.04271,5.96947 -3.38817,2.91413 -7.05642,5.47505 -10.553,8.25355 -2.31661,1.67397 -4.26534,3.76152 -6.35765,5.68986 -1.03542,1.18231 -2.19589,2.23392 -3.36304,3.28323 -4.03944,4.32042 -5.37113,4.26898 -12.38471,8.3382 -1.22022,0.49405 -2.39415,0.92389 -3.71122,1.08864 -1.33936,0.19801 -2.6507,0.52759 -4.00681,0.67119 0,0 8.29448,-6.19088 8.29448,-6.19088 l 0,0 c 1.33592,-0.2052 2.64592,-0.53832 3.98617,-0.71779 1.2195,-0.28751 2.37086,-0.78616 3.49148,-1.34095 -19.95594,11.68831 -8.86497,5.71601 -6.90669,3.86901 0.5928,-0.5591 1.09191,-1.21653 1.67866,-1.78211 1.10505,-1.12546 2.44239,-2.01208 3.37628,-3.29779 2.19604,-2.11439 -1.08712,1.01686 1.49557,-1.33368 1.66423,-1.51463 3.11838,-3.26523 5.02438,-4.50812 3.43951,-2.80436 7.10142,-5.32208 10.49894,-8.17951 2.0598,-1.79941 4.00524,-3.72184 6.03195,-5.55808 0.12663,-0.10504 0.24296,-0.22391 0.37989,-0.31511 0.0518,-0.0345 0.14327,-0.005 0.17786,-0.0564 0.10875,-0.16251 -0.36384,-0.14794 -0.55442,-0.19168 -0.41553,-0.0954 -0.72005,-0.13861 -1.13906,-0.20725 -1.36644,-0.0813 -2.74049,-0.0298 -4.1028,-0.19222 -1.59548,-0.1925 -3.15619,-0.54366 -4.72034,-0.90721 -1.94504,-0.39949 -3.7969,-1.05172 -5.60784,-1.86697 -1.90361,-0.87483 -3.6981,-1.85008 -5.18406,-3.37181 -1.91567,-1.65388 -3.60623,-3.54828 -5.56006,-5.16161 -0.76348,-0.57633 -1.53777,-1.14468 -2.38567,-1.59488 -0.19928,-0.10581 -0.40159,-0.21049 -0.61621,-0.28012 -0.14238,-0.0462 -0.57173,0.0148 -0.44448,-0.064 2.86314,-1.7733 5.82521,-3.38165 8.73782,-5.07248 -1.29972,-0.9608 1.03611,1.64664 1.21599,1.59306 1.6937,1.43144 3.52093,2.66072 5.37908,3.87089 2.01232,1.27129 4.06646,2.48047 6.20434,3.52954 1.71025,0.78452 3.45785,1.49244 5.26576,2.02142 1.97252,0.58841 3.97943,1.1376 6.04852,1.21673 0.89223,-0.0285 0.65521,0.003 1.48285,-0.10796 0.76967,-0.1029 1.09729,-0.19367 1.05809,-0.16064 -7.41197,6.24427 -4.53736,5.78463 -8.15296,6.29162 -1.4112,0.22561 -2.82251,0.25887 -4.25071,0.2137 -1.56383,-0.003 -3.12767,-0.006 -4.69148,0.005 -1.56069,0.0122 -3.12198,0.0374 -4.67958,0.14452 -2.27614,0.1642 -4.5424,0.46261 -6.82533,0.52057 -2.78909,0.001 -5.57814,0.0113 -8.36722,0.0144 -2.39839,-0.002 -4.7976,-0.006 -7.19477,-0.0908 -2.11685,-0.10047 -4.22966,-0.25408 -6.32755,-0.56571 -1.35866,-0.10342 -2.732,-0.12816 -4.06007,-0.46925 -1.58525,-0.40904 -3.1516,-0.87259 -4.80598,-0.91274 -3.42238,-0.20163 -6.8574,-0.14931 -10.27987,-0.37011 -4.55686,-0.2198 -9.10488,-0.53119 -13.64504,-0.98211 -2.55669,-0.25534 -5.12217,-0.37407 -7.67778,-0.64229 -1.85088,-0.15566 -3.70216,-0.17648 -5.55644,-0.0445 -1.86443,0.12646 -3.71769,0.36111 -5.57817,0.53254 -3.66532,0.24015 -7.3793,0.22378 -10.96591,1.12274 -2.65621,0.85515 -5.09049,2.20496 -7.74145,3.07364 0,0 8.22287,-6.28768 8.22287,-6.28768 z"
       inkscape:connector-curvature="0" />
    <path
       style="fill:#ff0000;fill-opacity:0.34901961;stroke-width:1.60000002;stroke-miterlimit:4;stroke-dasharray:none"
       id="path3177"
       d="m 365.29435,281.74905 c 2.81423,-0.28527 5.64846,-0.29016 8.46073,-0.57575 2.89341,-0.34892 5.80178,-0.51837 8.71368,-0.59584 3.36217,-0.0444 6.72468,-0.0502 10.08707,-0.0672 2.0227,0.15037 3.99508,-0.23795 5.98688,-0.50116 1.73763,-0.1756 3.48468,-0.19761 5.22948,-0.20955 2.1265,-0.01 4.25307,-0.003 6.37958,0.002 2.64461,-0.002 5.2892,0.0128 7.93378,0.0234 3.48715,0.0153 6.96433,0.34625 10.44615,0.52439 2.32727,0.14411 4.63379,0.19427 6.94733,-0.0961 2.70537,-0.2594 5.42274,-0.34149 8.13853,-0.39792 3.14485,-0.0233 6.28979,-0.0359 9.43472,-0.0435 2.56152,0.004 5.12302,-0.007 7.68453,-0.009 2.12867,-0.002 4.24158,-0.0932 6.34749,0.24462 1.41689,0.27721 2.85537,0.3625 4.29474,0.41036 0.26338,0.005 0.52745,0.036 0.79014,0.0162 1.52115,-0.11472 -0.16334,-0.12922 1.30922,-0.26151 0.64043,-0.0575 1.34245,0.0581 1.98205,0.1026 1.29525,0.0174 2.63413,0.30765 3.90714,0.01 1.19024,-0.33211 2.42201,-0.42872 3.65024,-0.49376 1.56191,-0.0419 3.12445,-0.0469 4.68682,-0.0498 1.44929,0.0619 2.84957,0.0105 4.26924,-0.26426 0.84862,-0.31649 1.70662,0.0617 2.55953,0.0437 1.31149,-0.0276 -0.34494,-0.19647 0.91977,-0.031 0.0938,0.0293 0.20769,0.0229 0.28141,0.0879 0.1759,0.15505 0.67655,1.05987 0.44057,1.21757 -7.3206,4.89212 -6.2792,5.02843 -11.05255,5.45418 -2.23956,0.17855 -4.48562,0.22627 -6.73106,0.25871 -1.64655,0.0198 -3.29325,0.0192 -4.9399,0.0187 -1.50324,0.002 -3.00645,-0.007 -4.50969,-0.007 -1.51204,8.1e-4 -3.02408,0.003 -4.53612,0.004 -1.81412,0.0192 -3.63076,-0.0951 -5.43629,0.10017 -2.34062,0.27337 -4.69155,0.43196 -7.0459,0.51658 -2.27678,0.004 -4.53248,0.0591 -6.79475,0.30598 -2.42549,0.2963 -4.87124,0.36228 -7.31186,0.41294 -2.87147,0.0401 -5.74345,0.032 -8.61513,0.0253 -3.00546,0.006 -6.01091,-0.002 -9.01637,-7.6e-4 -3.18358,-0.0189 -6.3672,-0.005 -9.55078,0.002 -2.26858,0.013 -4.53718,0.0184 -6.8058,0.0144 -2.0193,-0.002 -4.03859,0.004 -6.05788,0.0102 -1.59196,0.007 -3.18389,0.007 -4.77584,-0.001 -2.12021,-0.13204 -4.2069,0.11484 -6.3075,0.35392 -2.02241,0.23784 -4.05984,0.29274 -6.09406,0.32302 -1.87137,0.0274 -3.74288,0.0297 -5.61438,0.0214 -2.33758,-0.0575 -4.65416,-0.0361 -6.9777,0.22615 -0.99596,0.005 -1.96075,0.31271 -2.93423,0.43781 -1.18365,0.15211 -2.41235,0.0819 -3.60433,0.18931 -2.55364,0.19414 -5.0973,0.37734 -7.63485,0.7187 -1.67389,0.3632 -3.43327,0.2116 -5.10504,0.55053 8.8276,-6.48188 6.61096,-5.80867 13.63596,-6.83216 4.33753,-0.43698 8.70241,-0.37761 13.04831,-0.65718 3.17037,-0.0891 6.28447,-0.64552 9.41362,-1.09959 2.10386,-0.29162 4.2348,-0.27541 6.35419,-0.28112 2.46439,-0.009 4.92882,-0.012 7.39322,-0.009 2.52536,0.0726 5.03432,-0.0382 7.55239,-0.20023 4.81874,-0.24673 9.64406,-0.32183 14.4679,-0.39372 3.87238,-0.0596 7.74523,-0.0709 11.61798,-0.0813 3.09546,0.11758 6.17368,-0.21953 9.25482,-0.45838 2.30378,-0.36724 4.61051,-0.70122 6.93932,-0.85458 2.3856,-0.10408 4.77471,-0.10316 7.16216,-0.0995 2.65777,0.007 5.31555,0.008 7.97332,0.002 2.31028,-0.007 4.62055,0.003 6.93083,-1.4e-4 2.30514,0.004 4.61029,-0.002 6.91543,-0.002 2.3784,0.004 4.75679,0.002 7.13519,0.006 2.40837,0.003 4.81673,-0.005 7.2251,-0.003 2.11576,-0.007 4.23152,-0.005 6.34728,-0.007 1.06528,-0.15993 0.57817,-0.054 1.46674,-0.29185 0,0 -8.26837,6.24179 -8.26837,6.24179 l 0,0 c -0.93185,0.0986 -0.42144,0.0581 -1.53245,0.10512 -2.10896,-0.003 -4.21793,7e-5 -6.32689,-0.007 -2.40575,0.002 -4.81149,-0.006 -7.21724,-0.003 -2.38356,0.003 -4.76711,0.002 -7.15066,0.006 -2.3035,7.4e-4 -4.607,-0.006 -6.9105,-0.002 -2.3083,-0.004 -4.61661,0.005 -6.9249,-0.005 -2.65349,-0.0109 -5.30703,-0.0177 -7.96054,-0.007 -2.38376,0.0161 -4.77066,0.009 -7.14951,0.18493 -2.30828,0.20425 -4.59483,0.56451 -6.89708,0.82077 -3.08589,0.22365 -6.17027,0.48281 -9.26827,0.37359 -3.83637,-0.009 -7.67281,-0.0133 -11.50909,0.0188 -4.8473,0.059 -9.69822,0.14734 -14.53387,0.51242 -2.55033,0.19064 -5.09988,0.23418 -7.65711,0.18707 -2.45619,-0.004 -4.91247,-0.0195 -7.36859,0.008 -2.10504,0.0426 -4.21532,0.0875 -6.30083,0.40743 -3.09523,0.43085 -6.19252,0.82835 -9.32109,0.92239 -4.37015,0.20677 -8.76373,0.2007 -13.103,0.82246 -6.55442,1.07984 -7.80928,1.93648 2.91922,-5.53276 1.66999,-0.0188 3.32788,-0.30577 4.98425,-0.48569 2.5426,-0.32071 5.10218,-0.42244 7.65266,-0.66806 2.19115,-0.15289 4.36191,-0.39787 6.54326,-0.65376 2.35069,-0.19603 4.70526,-0.16558 7.06265,-0.16311 1.8644,-0.007 3.729,7.7e-4 5.59317,-0.0337 2.01637,-0.0559 4.03238,-0.14724 6.03605,-0.39374 2.12819,-0.22793 4.25302,-0.34059 6.39488,-0.27744 1.59321,-0.008 3.18639,-0.009 4.77961,-0.001 2.00992,0.006 4.01982,0.0122 6.02974,0.0102 2.25542,-0.004 4.51081,0.001 6.76619,0.0144 3.18058,0.008 6.36119,0.0217 9.54177,0.004 3.00224,0.003 6.00447,-6e-4 9.0067,0.007 2.87841,-0.008 5.75718,-0.004 8.635,-0.0718 2.4329,-0.0732 4.86419,-0.19247 7.28194,-0.48786 2.27347,-0.21489 4.55122,-0.17492 6.83186,-0.2571 2.35034,-0.11191 4.69395,-0.30196 7.03355,-0.554 1.84101,-0.0921 3.68413,-0.0501 5.52703,-0.0667 1.5083,0.001 3.0166,0.003 4.52489,0.005 1.50687,5.3e-4 3.01372,-0.006 4.52058,7.8e-4 1.63124,0.004 3.26254,0.0112 4.89374,-0.005 2.22508,-0.0325 4.45589,-0.0826 6.66644,-0.35937 4.32739,-0.75168 4.50193,-3.26345 -6.87973,4.60199 -0.27262,0.1884 1.16305,0.86365 0.51259,0.87295 -1.10599,0.0538 -2.22166,-0.19714 -3.31316,0.13655 -1.44742,0.19371 -2.90377,0.11678 -4.36097,0.12734 -1.55273,0.005 -3.10792,0.003 -4.6572,0.1186 -1.22113,0.11474 -2.41885,0.3469 -3.62962,0.53213 -1.33648,0.0145 -2.66986,-0.0806 -4.00395,-0.15079 -1.36295,-0.0413 -2.69423,0.24511 -4.05849,0.13627 -1.46157,-0.0747 -2.91212,-0.23001 -4.35234,-0.49668 -2.06433,-0.25981 -4.14585,-0.12552 -6.22163,-0.15447 -2.54977,-0.004 -5.09951,-0.0186 -7.6493,-0.016 -3.13976,-0.005 -6.28012,-0.0186 -9.41916,0.062 -2.71764,0.0735 -5.43694,0.18203 -8.13886,0.50079 -2.32833,0.19642 -4.65705,0.0701 -6.98587,-0.0804 -3.46306,-0.21577 -6.92624,-0.55712 -10.39964,-0.48676 -2.66324,0.01 -5.32652,0.0228 -7.98978,0.0167 -2.1318,0.003 -4.26368,-0.001 -6.39534,0.0282 -1.72927,0.0378 -3.46263,0.0839 -5.17828,0.32326 -1.98744,0.26692 -3.97249,0.44674 -5.98211,0.32942 -3.35528,-0.0122 -6.71163,-0.0169 -10.06555,0.0927 -2.90058,0.11596 -5.79459,0.31956 -8.6803,0.64083 -2.84603,0.21407 -5.70512,0.28162 -8.53739,0.66157 0,0 8.29832,-6.17052 8.29832,-6.17052 z"
       inkscape:connector-curvature="0" />
    <path
       style="fill:#ff0000;fill-opacity:0.34901961;stroke-width:1.60000002;stroke-miterlimit:4;stroke-dasharray:none"
       id="path3179"
       d="m 313.04688,384.35033 c 2.86089,0.15241 5.70594,-0.10167 8.55612,-0.30607 2.74417,-0.1828 5.49237,-0.30991 8.2422,-0.3602 1.90047,-0.0322 3.80129,-0.0274 5.70197,-0.0303 1.87348,3e-4 3.74693,0.011 5.62043,0.0107 1.91846,0.008 3.83692,-0.008 5.75538,-0.005 2.35542,0.008 4.7109,0.0123 7.0663,0.0271 2.82068,0.002 5.64136,-0.002 8.46202,-0.0123 2.44404,-4.4e-4 4.88806,-5.4e-4 7.33209,-9.4e-4 2.09885,0.004 4.19768,-0.009 6.29651,-0.016 1.75469,0.12035 3.46785,-0.13529 5.19958,-0.3669 1.96038,-0.20663 3.93268,-0.28029 5.9028,-0.312 2.48876,-0.0206 4.97801,-0.012 7.46668,0.0182 4.52859,0.0333 9.05733,0.0276 13.586,0.0323 3.92628,0.002 7.85247,-0.0233 11.77871,-0.0369 2.35752,0.0674 4.68441,-0.38036 7.02722,-0.56929 2.17755,-0.14072 4.36037,-0.13884 6.54138,-0.14432 3.27608,9.8e-4 6.55228,0.008 9.82809,0.0504 6.2346,-0.0196 12.46267,0.10466 18.69201,0.34815 2.96964,0.11965 5.9397,0.23213 8.91159,0.27293 1.93476,0.0208 3.86964,0.0176 5.80442,0.0318 3.75433,0.0364 7.509,0.0392 11.26346,0.0254 2.81475,0.001 5.62941,-0.024 8.44409,-0.0411 1.76639,-0.009 3.53281,-0.004 5.29921,-0.004 2.25368,-0.0815 4.50076,-0.3694 6.75542,-0.51936 2.07819,-0.11519 4.15913,-0.16194 6.24012,-0.18285 1.61391,0.1361 3.16354,-0.14256 4.74795,-0.37976 1.60262,-0.15464 3.18716,-0.30504 4.72647,-0.79823 1.55706,-0.55364 3.18082,-0.74581 4.81837,-0.84851 1.82281,-0.18104 3.6324,-0.47484 5.46742,-0.60277 1.97357,-0.12043 3.95172,-0.14309 5.92843,-0.15959 1.54232,-0.13364 3.03342,0.26499 4.54865,0.47664 1.56196,0.17185 3.13444,0.20006 4.70419,0.21822 0.71244,-0.1279 1.42412,-0.25806 2.13811,-0.37708 0,0 -8.27154,6.2134 -8.27154,6.2134 l 0,0 c -0.74307,0.11503 -1.48732,0.24778 -2.2431,0.22614 -1.59939,-0.0401 -3.20184,-0.0997 -4.78804,-0.32313 -1.47262,-0.23325 -2.93663,-0.47056 -4.43576,-0.35912 -1.95512,0.0151 -3.91205,0.0421 -5.86147,0.20648 -1.83559,0.17814 -3.6509,0.507 -5.49207,0.62108 -1.60323,0.16765 -3.16532,0.51198 -4.70473,0.9934 -1.58821,0.34653 -3.19605,0.50115 -4.80597,0.71122 -1.604,0.23766 -3.20383,0.30912 -4.82634,0.25993 -2.0533,0.0183 -4.10747,0.0561 -6.15655,0.19851 -2.27933,0.16675 -4.55017,0.49828 -6.8381,0.49094 -1.76273,1.1e-4 -3.52549,0.005 -5.28821,-0.004 -2.77751,-0.017 -5.55501,-0.0419 -8.33259,-0.0397 -3.78124,-0.0125 -7.56268,-0.007 -11.34375,0.0331 -1.95297,0.0154 -3.90692,0.0285 -5.85944,-0.0232 -2.90534,-0.10115 -5.80649,-0.28817 -8.7092,-0.44431 -6.23009,-0.31079 -12.46061,-0.434 -18.69856,-0.28864 -3.32197,0.0389 -6.64418,0.0364 -9.96631,0.0587 -2.176,0.0229 -4.35508,0.046 -6.52426,0.23706 -2.32953,0.22827 -4.6602,0.53011 -7.00692,0.44108 -3.89187,-0.0137 -7.78368,-0.0394 -11.6756,-0.0382 -4.55485,0.003 -9.10975,-0.005 -13.66453,0.0246 -2.51727,0.0284 -5.03488,0.0189 -7.55185,0.0733 -1.95217,0.0584 -3.90724,0.13424 -5.84387,0.40475 -1.75732,0.2219 -3.51264,0.33489 -5.28549,0.26446 -2.08418,-0.007 -4.16836,-0.0198 -6.25256,-0.016 -2.44317,-4e-4 -4.88633,-5e-4 -7.3295,-9.4e-4 -2.80938,-0.0104 -5.61877,-0.0147 -8.42817,-0.0123 -2.38032,0.0148 -4.76074,0.0192 -7.14108,0.0272 -1.91388,0.003 -3.82773,-0.0123 -5.74161,-0.006 -1.87987,-0.002 -3.75973,0.007 -5.6396,0.003 -1.88626,-0.005 -3.7726,-0.004 -5.65869,0.0248 -2.71788,0.0585 -5.43558,0.148 -8.14679,0.35656 -2.90062,0.21108 -5.79771,0.36885 -8.70779,0.32528 0,0 8.36665,-6.07873 8.36665,-6.07873 z"
       inkscape:connector-curvature="0" />
    <path
       style="fill:#ff0000;fill-opacity:0.34901961;stroke-width:1.60000002;stroke-miterlimit:4;stroke-dasharray:none"
       id="path3181"
       d="m 246.83998,495.64034 c 4.69948,-0.68876 9.46152,-0.77407 14.20163,-0.89924 4.88388,-0.25388 9.76456,-0.56582 14.64902,-0.8086 2.55631,-0.12058 5.11587,-0.12141 7.67439,-0.12567 2.47813,-0.0104 4.95619,0.0123 7.43431,0.0103 2.7008,0.005 5.40161,0.007 8.1024,-0.002 2.02194,-0.006 4.04387,-0.0115 6.06581,-0.0179 1.47879,-0.005 2.95759,-0.006 4.43639,-0.007 1.41585,6.8e-4 2.83171,-0.003 4.24755,0.003 1.73563,0.005 3.47127,0.002 5.2069,0.007 1.69311,3.9e-4 3.38622,-0.005 5.07934,-0.008 1.51012,0.0535 2.99168,0.41086 4.50205,0.55156 1.69806,0.13306 3.40256,0.14286 5.10484,0.15082 1.61274,0.002 3.22547,0.003 4.83821,-5.9e-4 1.51179,-0.003 3.02359,-0.009 4.53538,-0.003 1.93221,0.006 3.86446,0.0113 5.79669,0.011 1.92912,0.005 3.85823,-0.004 5.78734,-0.01 1.9614,-0.002 3.92278,0.0113 5.88417,0.0171 2.45835,0.008 4.91672,0.004 7.37506,-0.005 1.74937,-0.0116 3.49873,-0.0114 5.24812,-0.0109 1.55245,-0.001 3.10491,-0.004 4.65736,-0.005 1.6861,0.006 3.37219,0.003 5.05829,0.0105 2.17526,-0.0343 4.32674,-0.0218 6.48497,0.24846 1.81416,0.25663 3.64186,0.3616 5.47153,0.41566 2.03573,0.0416 4.07199,0.0448 6.10805,0.0498 2.69882,0.0175 5.39758,0.007 8.09639,-0.008 1.91373,0.0272 3.79321,-0.4013 5.69671,-0.55835 2.0553,-0.14089 4.11789,-0.13389 6.17709,-0.14164 2.42381,-0.001 4.8476,-4e-5 7.2714,0.005 2.81958,0.008 5.6392,0.0159 8.4588,0.008 2.51111,-0.009 5.02223,-0.007 7.53335,-0.005 2.80049,-0.004 5.60096,0.0126 8.40143,0.0116 2.68592,0.0198 5.35751,0.0646 8.02574,-0.25981 1.78835,-0.37298 3.56048,-0.1341 5.35024,0.0322 2.03571,0.15903 4.07867,0.18047 6.11941,0.2039 2.87622,0.0309 5.75269,0.0247 8.62904,0.023 2.5712,6e-4 5.14238,-0.01 7.71357,-0.0185 2.11914,0.0175 4.21946,0.37633 6.3333,0.53647 2.11562,0.14289 4.237,0.15074 6.35644,0.16373 2.68277,0.0103 5.36555,0.0132 8.04833,0.02 3.55994,-0.0846 7.10767,0.24956 10.65844,0.45039 2.7259,0.15318 5.45572,0.20445 8.18538,0.22179 2.04444,-0.30594 4.08797,-0.48894 6.15209,-0.58316 2.41674,-0.0218 4.84611,-0.24023 7.25548,-0.002 2.24445,0.31007 4.50303,0.44932 6.7655,0.53081 2.87283,0.18479 5.72714,-0.0157 8.58596,-0.27906 2.02499,-0.22181 4.05826,-0.31198 6.09355,-0.35807 2.1966,-0.0211 4.39334,-0.003 6.59,-0.004 2.29101,0.005 4.58202,9.8e-4 6.87303,-0.003 1.88022,1.2e-4 3.76046,-0.009 5.64068,-0.005 1.65177,-1.7e-4 3.30353,-0.005 4.95529,-0.007 1.58454,-7e-4 3.16909,5.1e-4 4.75362,0.006 1.82879,0.006 3.65758,0.002 5.48637,-0.002 1.63575,0.0942 3.23449,-0.27561 4.84996,-0.47429 1.61824,-0.19221 3.24882,-0.20688 4.87608,-0.21688 1.69943,-0.0103 3.3989,-0.0119 5.09836,-0.0127 0,0 -8.36533,6.0765 -8.36533,6.0765 l 0,0 c -1.69026,-0.004 -3.38066,-0.0122 -5.0708,0.0133 -1.60983,0.0389 -3.22134,0.0963 -4.81839,0.31901 -1.63567,0.21974 -3.26802,0.46576 -4.92508,0.3655 -1.82708,-0.004 -3.65416,-0.008 -5.48124,-0.002 -1.59006,0.005 -3.18015,0.007 -4.77022,0.006 -1.64526,-0.002 -3.29052,-0.007 -4.93578,-0.007 -1.87477,0.003 -3.74956,-0.006 -5.62432,-0.007 -2.28448,-0.006 -4.56896,-0.0126 -6.85345,-0.0109 -2.20444,-0.003 -4.40924,0.001 -6.61317,0.054 -2.00344,0.0575 -4.00299,0.18502 -5.99929,0.36466 -2.88586,0.22629 -5.77116,0.34035 -8.66546,0.182 -2.28006,-0.0871 -4.54818,-0.28382 -6.81523,-0.5404 -2.38581,-0.10913 -4.77794,5.9e-4 -7.16275,0.0967 -2.07214,0.13301 -4.12297,0.46847 -6.19872,0.53231 -2.71575,-0.0474 -5.43153,-0.12433 -8.1417,-0.31363 -3.54513,-0.22334 -7.08992,-0.49538 -10.64544,-0.38397 -2.70171,0.01 -5.40346,0.022 -8.10518,0.0117 -2.13951,-0.017 -4.28253,-0.0309 -6.41543,-0.21765 -2.08864,-0.18946 -4.17245,-0.52122 -6.27473,-0.47302 -2.55638,-0.008 -5.11277,-0.0161 -7.66917,-0.0138 -2.88846,-7.6e-4 -5.77693,-0.001 -8.66538,-0.0109 -2.07563,-0.0222 -4.15347,-0.0469 -6.22244,-0.23194 -1.7387,-0.15762 -3.4576,-0.20642 -5.18992,0.0994 -2.67459,0.22906 -5.35578,0.12171 -8.0375,0.13717 -2.81111,-9.9e-4 -5.62223,0.0152 -8.43336,0.0116 -2.50658,0.003 -5.01314,0.004 -7.51971,-0.005 -2.82496,-0.009 -5.64995,-0.001 -8.47491,0.003 -2.42726,0.001 -4.85455,-0.006 -7.28175,0.0128 -2.05263,0.0212 -4.10899,0.0354 -6.15355,0.23973 -1.90197,0.21482 -3.80177,0.53344 -5.72326,0.45404 -2.69562,-0.0131 -5.39118,-0.0192 -8.08678,-10e-6 -2.05786,0.004 -4.11693,0.0257 -6.17379,-0.0503 -1.83976,-0.0856 -3.673,-0.23917 -5.49815,-0.49135 -2.13688,-0.21604 -4.27928,-0.16218 -6.42489,-0.14852 -1.69574,0.007 -3.39147,0.005 -5.08722,0.0105 -1.54752,-0.001 -3.09504,-0.004 -4.64257,-0.005 -1.73941,5.5e-4 -3.47881,8e-4 -5.2182,-0.0109 -2.45355,-0.01 -4.90712,-0.0128 -7.36068,-0.005 -1.97708,0.006 -3.95416,0.0195 -5.93125,0.0171 -1.92012,-0.005 -3.84025,-0.0149 -5.76039,-0.01 -1.94243,-3.1e-4 -3.88489,0.005 -5.82731,0.0115 -1.51093,0.007 -3.02189,0.002 -4.53283,0.002 -1.61472,-2.5e-4 -3.2295,0.009 -4.84415,-0.009 -1.72193,-0.0258 -3.4472,-0.0548 -5.16164,-0.23054 -1.48062,-0.1724 -2.94816,-0.51147 -4.44599,-0.45877 -1.68604,-0.003 -3.37207,-0.008 -5.05811,-0.008 -1.74197,0.004 -3.48395,0.002 -5.22593,0.007 -1.41904,0.007 -2.8381,0.003 -4.25715,0.003 -1.47273,-6.6e-4 -2.94547,-0.002 -4.4182,-0.007 -2.00545,-0.006 -4.0109,-0.012 -6.01635,-0.0181 -2.69775,-0.009 -5.39552,-0.008 -8.09328,-0.006 -2.48233,-0.005 -4.96463,0.0102 -7.44697,0.003 -2.53302,0.008 -5.06617,0.0284 -7.59782,0.12036 -4.82686,0.16745 -9.64854,0.4391 -14.47282,0.66513 -4.80519,0.16829 -9.64991,0.29232 -14.37859,1.24187 0,0 8.23289,-6.23349 8.23289,-6.23349 z"
       inkscape:connector-curvature="0" />
  </g>
</svg>
